<svg xmlns="http://www.w3.org/2000/svg" width="512" height="512">
  <g fill="#999999" fill-rule="evenodd" clip-rule="evenodd">
    <path d="M403 270c7 7 9 15 7 24 2-6 7-10 14-11 4-1 8 0 12 3 7 4 10 12 7 20s-10 13-19 12c-5-1-9-3-12-7s-4-9-3-14c-4 7-10 12-18 13 6 8 8 16 4 25-3 9-11 13-20 14 8 8 10 17 4 27-4 8-11 11-21 10-9-1-14-7-17-16-4 4-9 7-15 8 5 8 7 16 3 24-3 5-7 9-13 11-9 2-22 0-27-16l-9 5-9 3c7 10 8 18 2 25-5 7-13 10-21 7-8-2-13-9-13-17-1-11 4-16 16-21l-8-11-13 5a20 20 0 01-4 30c-12 7-23 2-28-6-6-9-5-25 11-31l-6-10-12 4c5 6 6 13 3 20a20 20 0 01-37 0c-4-9 0-22 15-27-5-4-7-8-9-14-5 5-12 5-19 5 5 3 8 7 10 12 1 5 0 10-3 14-5 7-12 10-21 7s-13-11-12-19c1-9 8-17 21-16-9-5-14-12-13-23-7 9-16 11-26 6-9-5-11-12-9-21 1-8 7-13 19-15-8-6-11-14-10-24-4 4-7 8-13 9-5 1-10 0-14-3-7-5-9-14-7-21 4-8 12-13 20-12 5 1 9 4 12 8 3 3 4 8 3 13l7-7 8-5c-3-5-6-9-6-15-6 5-14 7-21 4-6-2-9-6-11-12a20 20 0 1138-11l11-7-5-13c-6 5-13 7-20 4-6-2-10-6-12-11-4-11 0-22 12-27 11-4 22 2 26 14l12-8-4-14c-5 5-12 8-20 6-5-2-8-4-11-9-6-10-1-22 6-26 7-3 13-4 19 0 7 3 9 9 11 16 4-6 10-10 17-11-5-7-8-14-5-22 3-6 7-11 13-13 11-3 24 1 28 16 5-4 10-7 16-8-6-9-7-18-1-26s13-10 21-8c9 2 15 9 16 20 7-8 15-11 24-9s15 9 17 18c16-14 37-5 40 14 8-7 17-9 26-4 9 4 13 12 11 23 4-4 7-8 12-10 5-1 10-1 14 1 9 5 13 12 11 21-1 9-8 15-17 16l7 10 3 10c7-7 16-9 25-3 8 4 10 11 9 19-1 5-4 9-8 12s-8 4-14 4c10 6 14 16 11 26-2 8-8 14-18 16zm1-44c-6-4-10-9-10-16l-11 8 5 12c5-4 10-4 16-4zm-43-50l13-4c-6-5-8-11-7-18l-6 6-6 5 6 11zM144 319l-5-8-1-2c-4 2-8 3-14 3 6 4 9 10 9 16l11-9zm96-185l9-4-3-11c-3 4-7 6-12 7l6 8zm120 210l-6-7-8 4 2 8 12-5zm-65 32l10-5-5-6h-2l-6 3 3 8zM182 153l4 6 3 1 5-3-2-8-10 4zm143-6l-7 5 4 7 7-3-4-9zm60 117l-6-8-6 4 3 7 9-3zM282 145l6-2-3-8-7 5 4 5zm89 159l-5-7-5 4 3 5 7-2zm-190 27l-3-4-6 2 3 6 6-4zm-28-54l-2-4-6 2 3 6 5-4zm195-65l6-3-2-5-6 4 2 4zm-88 145l-2-4-3 2 1 5 4-3zm-87-162l3 4 2-2-1-4-4 2zm-7 42l-2-3-4 1 2 4 4-2zm49 105l2 4 3-3-2-2-3 1z"/>
    <path d="M367 405c0 9-8 17-18 17-9 0-17-8-17-18 0-9 8-17 18-17 9 0 17 8 17 18zM338 92c0 10-7 18-17 17-11 0-18-7-18-17s8-17 18-17 17 7 17 17zM190 76c10 0 18 8 18 17 0 10-8 18-18 18-9 0-17-8-17-18 0-9 8-17 17-17zM431 339c-1 10-7 17-17 18-10 0-18-7-18-18 0-9 6-17 17-17 10 0 17 7 18 17zM265 79c-1-9 8-17 17-17 8 0 17 8 17 18-1 8-8 17-18 16-8 0-17-8-16-17zM314 431c-1 9-6 17-17 17-9 1-17-6-17-16s7-17 17-17 16 6 17 16zM155 120c0 8-8 16-17 16-8 0-17-7-16-18 0-7 7-16 17-15 8 0 16 8 16 17zM439 244c9 0 17 8 17 17 0 8-8 16-17 16-8 0-17-8-16-17 0-8 8-16 16-16zM360 89c9-1 16 7 16 16 0 8-7 16-16 16s-17-7-17-16c1-9 8-17 17-16zM416 379c0 8-7 15-15 15-8-1-15-7-15-16 0-8 7-15 16-15 8 0 15 7 14 16zM426 154c8 0 15 7 15 16 0 8-7 15-15 15-9 0-15-7-15-15 0-9 7-16 15-16zM242 81c-10-1-15-6-15-15s7-15 15-14c11 0 15 7 15 15 0 9-7 14-15 14zM115 368c0 8-6 14-14 14-9 0-15-7-15-15 1-9 7-14 15-14s14 6 14 15zM89 315c0 9-6 15-14 15-9 0-15-6-15-15 0-8 6-14 14-14 9 0 15 6 15 14zM219 445c1 7-6 14-13 14-7-1-14-7-14-14s7-14 14-14c7 1 14 7 13 14zM73 199c-7 0-13-6-13-14a13 13 0 0127 0c0 8-6 14-14 14zM386 118c0-8 5-14 13-14s13 6 13 14c0 7-6 13-13 13-8 0-13-6-13-13zM465 222c0 7-6 13-13 13s-13-6-13-13c0-8 6-14 13-14s13 6 13 14zM180 432c-1 7-5 13-13 13s-13-5-13-13 6-13 13-13c8 0 12 6 13 13zM61 212c7-1 13 6 13 12 0 7-6 13-13 13s-14-6-13-13c0-7 5-12 13-12zM257 458c1 6-6 12-12 12s-13-5-12-12c0-7 5-12 12-13 6 0 13 6 12 13zM98 146c0 7-6 13-12 12-7 0-12-4-12-12 0-7 5-11 12-12 7 0 13 6 12 12zM348 445c0 6-5 11-12 11-6 0-11-6-11-12s5-11 12-11c6 0 12 5 11 12zM151 69c7 0 12 5 12 11 0 7-5 12-12 12s-12-5-12-12c0-6 5-11 12-11zM400 418c-1 6-5 11-12 10-6 0-10-4-11-10 0-7 5-11 11-11 7 0 11 4 12 11zM214 54c0 6-5 11-11 11-5 0-11-5-11-11 0-5 6-11 11-11 6 0 11 6 11 11zM138 420c0 6-4 10-11 10-6 0-10-4-10-10 0-7 5-11 11-11s10 5 10 11zM58 264c1 5-5 10-10 10s-11-5-11-11c0-5 5-10 11-10 5 0 11 5 10 11zM457 313c0-5 4-10 9-10s9 5 9 10c0 4-4 9-9 9s-9-5-9-9zM275 471c1-5 4-9 9-9 5-1 9 2 10 8 0 5-5 10-9 10-5 0-9-4-10-9zM324 53c1-7 6-9 10-9 6 0 9 5 9 9-1 6-6 10-10 9-6-1-8-6-9-9zM108 107c0 5-4 8-9 8s-9-3-9-8c0-6 4-9 9-9s9 4 9 9zM462 352c0 5-4 9-9 9-4 0-9-4-9-9 1-4 5-9 9-9 5 0 9 5 9 9zM294 49c-4 0-9-5-9-9s5-9 9-9 9 5 9 9c0 5-5 9-9 9zM54 355c-1-4 4-8 8-8 5 0 8 3 8 8s-3 8-8 8c-4 1-9-4-8-8zM465 191c-5 0-8-4-8-9 0-4 3-8 8-8 4 0 8 4 8 8 0 5-4 9-8 9zM439 139c-5 0-9-4-9-8 0-5 4-9 9-9a8 8 0 110 17zM478 265c4 0 9 5 8 9 0 3-4 7-8 8-4 0-8-4-8-8 0-5 4-9 8-9zM373 58c4 0 7 3 7 8 0 4-3 7-7 7-5 0-8-3-8-7 0-5 3-8 8-8zM36 310c-4 0-7-4-7-7 0-4 3-7 7-7 3 0 6 3 6 7 0 3-3 6-6 7zM94 407c0 4-2 6-6 6s-6-2-6-6 2-6 6-6 6 2 6 6zM440 385c4 0 7 3 7 6 0 4-3 7-7 7-3 0-6-3-6-7 0-3 3-6 6-6zM255 21c3 0 6 3 6 6 0 4-3 7-6 7-4 0-7-3-7-7 0-3 3-6 7-6zM169 41c0 3-2 6-5 6-3-1-6-3-5-6 0-3 2-5 5-5s5 3 5 5zM496 234c0 3-2 6-5 6s-5-3-5-6c0-2 2-5 5-5s5 2 5 5zM381 457c0 3-3 5-5 5-3 0-6-2-6-5s3-5 6-5c2 0 5 2 5 5zM417 79c0 2-3 5-5 5s-5-3-5-5c0-3 3-6 5-6 2 1 5 3 5 6zM324 488c-2 0-5-2-5-4 0-3 2-5 5-5 2 0 4 2 4 5 0 2-2 4-4 4zM193 489c-3 0-4-1-4-4s1-5 4-4c3 0 4 1 4 4s-1 4-4 4zM112 72c-3 0-4-2-4-5 0-2 1-4 4-4s4 2 4 5-1 4-4 4zM34 168c3 0 4 2 4 5 0 2-1 4-4 4s-4-2-4-5c0-2 1-4 4-4zM154 468c2 0 4 2 4 4s-2 4-4 4-4-2-4-4 2-4 4-4zM26 212c0 2-2 4-4 4s-5-2-5-4 3-4 5-4 4 2 4 4zM232 500c-2 0-3-1-3-3s1-4 3-4 4 2 4 4-2 3-4 3zM432 430l-4 4c-2 0-3-2-4-4 0-1 2-3 4-3l4 3zM52 134l-5 3-3-4 3-3c2 0 3 2 5 4zM219 14c0 2-1 3-3 3s-3-1-3-3 1-2 3-2 3 1 3 2zM481 143l-3 3-3-3 3-2 3 2zM119 459l-4 3-3-3 3-3 4 3zM52 394l-3 2-2-2 2-2 3 2zM12 251l-3 2-3-2 3-2 3 2zM26 342c-1 1-2 3-3 2l-3-2 3-2 3 2zM451 89l2 2-2 2-2-2 2-2zM63 94c-2 1-2 2-3 1l-2-1 2-2 3 2zM504 198l-2-3 2-1 2 1-2 3z"/>
  </g>
  <g fill="#095F8E">
    <path d="M207 253c-5 1-9 2-13-2-3-4-5-7-12-6-8 2-15 6-21 11-5 3-10 11-14 13-6 3-12 16-15 21l-11 20c-3 6-7 11-8 17-2 15-13 31-5 45 1 16 24 1 30-2 6-2 9-10 13-15 1-2 3-2 2-5-1-4 5-2 5-2l-1-3c2 1 11-5 11-5l7 6c2 1 11-5 12-2 1 2 4 6 6 5 5-3 4 3 5 3s5-2 5 0v3c1 1-3 8-3 9-4 9-11 22-18 28-10 8-16 19-27 25-8 5-22 13-32 13-6-1-18 5-25 2-8-4-16-6-23-11-6-5-13-14-14-22l-2-14c-2-3 1-11 1-15-1-11 6-23 5-34 0-4 3-10 5-13l5-15c6-11 9-23 15-35 4-6 10-12 13-19 4-6 10-10 13-16 5-9 18-17 26-24 10-5 19-14 30-18 13-5 63-15 61 8-1 3-10 12-9 15 2 3-5 14-4 14 1 2 0 3-1 3-4 2 0 5-1 8-2 4-10 4-11 9-2 0 0-1 0 0z"/>
    <path d="M344 312c3-13 10-25 14-37l15-42 13-34c2-5 17-44 24-31l12-9c7-5 7-8 13-3 2-1 10-9 12-8 2 2 6 0 8 4 4 3-2 7-2 10 1 8-7 22-10 30-3 11-8 21-12 32-14 44-29 88-41 132-2 7-3 24-8 30l-4-2-6 4c-2 1-4 0-5-1-2-4-4 2-7 3-4 1-5-4-8-4-5 0-10 2-14 4-6 2-17 13-20 3-1-3 2-7 0-10l-4-2c-3 1-3-4-5-6-18 10-14-15-12-26 1-11 2-25 5-36 2-6 5-16 5-23-5 6-9 17-13 24l-14 36-12 33c-1 2-9 21-9 13-4 2-2 9-10 7-3-2-6 1-10 1-10 4-13 0-23-3-3-1-14-6-16-10 0-11-2-24 1-35 2-9 0-20 3-29 4-11 2-24 8-35 9-16 6-36 15-54 11-19 9-40 30-52 8-5 19-12 28-13 4-1 27-1 25 5-3 10-11 20-14 30l-14 32-15 39-5 17c-1 3-4 13-3 15 1 3 14-23 15-26 6-14 14-28 23-41 2-3 6-14 10-15l11-14c3-2 6 0 8-1 3-2 8-7 11-7 9-1 25-4 21 8l-5 14c-3 8-3 16-6 23-5 10-4 23-5 34-2 10 0 16 2 26z"/>
  </g>
  <g fill="none" stroke="#0B75BC" stroke-linejoin="round" stroke-miterlimit="10" stroke-width="35">
    <path d="M211 211c-5 1-9 2-13-2s-5-7-12-6c-8 2-15 6-22 11-4 3-9 11-14 13-5 3-12 16-15 21l-10 20c-3 6-8 11-9 17-2 15-13 31-4 45 1 16 24 1 30-2 6-2 9-10 12-15 1-2 4-2 3-5-1-4 4-2 5-2l-1-3c2 1 10-5 10-5l8 6c2 1 11-5 12-2 0 2 4 6 6 5 5-3 3 3 5 3 0 0 5-2 5 0v3c1 1-3 8-4 9-3 9-10 22-17 28-10 8-16 19-27 25-9 5-23 13-32 13-7-1-19 5-25 2-8-4-16-6-23-11-6-5-14-14-14-22l-2-14c-2-3 1-11 0-15-1-11 7-23 6-34-1-4 3-10 5-13l4-15 16-35c3-6 10-12 13-19 4-6 9-10 12-16 5-9 19-17 27-24 10-5 18-14 29-18 13-5 64-15 62 8-1 3-10 12-9 15s-5 14-4 14c1 2 0 3-2 3-4 2 0 5 0 8-2 4-10 4-11 9-2 0 0-1 0 0z"/>
    <path d="M347 270c4-13 10-25 15-37l15-42 13-34c2-5 17-44 23-31l13-9c6-5 7-7 12-3 2-1 11-9 13-8 2 2 6 0 8 4 3 3-3 7-2 10 0 8-8 22-10 30-3 11-8 21-12 32l-42 132c-1 7-2 24-7 30l-4-2-7 4c-1 1-3 0-4-1-3-4-4 2-7 3-5 1-5-4-9-4s-9 2-14 4-16 13-19 3c-1-3 1-7-1-10 0-1-1-2-3-2-3 1-4-4-5-6-19 10-14-15-13-26 2-11 3-25 6-36 2-6 5-16 5-23-6 6-10 17-13 24l-15 36-12 33c0 2-8 21-8 13-5 2-3 9-10 7-3-2-7 1-10 1-10 4-14 0-23-3-4-1-14-6-17-10 1-11-1-24 1-35 2-9 1-20 4-29 3-11 1-24 7-35 10-16 6-36 16-54 11-19 9-40 30-52 8-5 19-12 27-13 4-1 27-1 26 5l-15 30-14 32-14 39-5 17c-1 3-5 13-3 15 1 3 14-23 15-26 6-14 14-28 23-41 1-3 6-14 9-15l11-14c4-2 6 0 9-1 2-2 8-7 11-7 8-1 25-4 20 8l-4 14c-3 8-3 16-7 23-4 10-3 23-5 34-1 10 0 16 2 26z"/>
  </g>
  <g fill="#FFFFFF">
    <path d="M211 211c-5 1-9 2-13-2s-5-7-12-6c-8 2-15 6-22 11-4 3-9 11-14 13-5 3-12 16-15 21l-10 20c-3 6-8 11-9 17-2 15-13 31-4 45 1 16 24 1 30-2 6-2 9-10 12-15 1-2 4-2 3-5-1-4 4-2 5-2l-1-3c2 1 10-5 10-5l8 6c2 1 11-5 12-2 0 2 4 6 6 5 5-3 3 3 5 3 0 0 5-2 5 0v3c1 1-3 8-4 9-3 9-10 22-17 28-10 8-16 19-27 25-9 5-23 13-32 13-7-1-19 5-25 2-8-4-16-6-23-11-6-5-14-14-14-22l-2-14c-2-3 1-11 0-15-1-11 7-23 6-34-1-4 3-10 5-13l4-15 16-35c3-6 10-12 13-19 4-6 9-10 12-16 5-9 19-17 27-24 10-5 18-14 29-18 13-5 64-15 62 8-1 3-10 12-9 15s-5 14-4 14c1 2 0 3-2 3-4 2 0 5 0 8-2 4-10 4-11 9-2 0 0-1 0 0z"/>
    <path d="M347 270c4-13 10-25 15-37l15-42 13-34c2-5 17-44 23-31l13-9c6-5 7-7 12-3 2-1 11-9 13-8 2 2 6 0 8 4 3 3-3 7-2 10 0 8-8 22-10 30-3 11-8 21-12 32l-42 132c-1 7-2 24-7 30l-4-2-7 4c-1 1-3 0-4-1-3-4-4 2-7 3-5 1-5-4-9-4s-9 2-14 4-16 13-19 3c-1-3 1-7-1-10 0-1-1-2-3-2-3 1-4-4-5-6-19 10-14-15-13-26 2-11 3-25 6-36 2-6 5-16 5-23-6 6-10 17-13 24l-15 36-12 33c0 2-8 21-8 13-5 2-3 9-10 7-3-2-7 1-10 1-10 4-14 0-23-3-4-1-14-6-17-10 1-11-1-24 1-35 2-9 1-20 4-29 3-11 1-24 7-35 10-16 6-36 16-54 11-19 9-40 30-52 8-5 19-12 27-13 4-1 27-1 26 5l-15 30-14 32-14 39-5 17c-1 3-5 13-3 15 1 3 14-23 15-26 6-14 14-28 23-41 1-3 6-14 9-15l11-14c4-2 6 0 9-1 2-2 8-7 11-7 8-1 25-4 20 8l-4 14c-3 8-3 16-7 23-4 10-3 23-5 34-1 10 0 16 2 26z"/>
  </g>
</svg>
